<svg xmlns="http://www.w3.org/2000/svg" viewBox="0 0 1200 630" width="1200" height="630">
  <defs>
    <pattern id="grid" width="44" height="44" patternUnits="userSpaceOnUse">
      <path d="M 44 0 L 0 0 0 44" fill="none" stroke="#211B12" stroke-opacity="0.045" stroke-width="1"/>
    </pattern>
    <radialGradient id="glow-l" cx="0" cy="50%" r="70%" gradientUnits="objectBoundingBox">
      <stop offset="0%" stop-color="#5FBE85" stop-opacity="0.16"/>
      <stop offset="100%" stop-color="#5FBE85" stop-opacity="0"/>
    </radialGradient>
    <radialGradient id="glow-r" cx="100%" cy="30%" r="60%" gradientUnits="objectBoundingBox">
      <stop offset="0%" stop-color="#FF6B57" stop-opacity="0.14"/>
      <stop offset="100%" stop-color="#FF6B57" stop-opacity="0"/>
    </radialGradient>
    <radialGradient id="glow-b" cx="70%" cy="100%" r="60%" gradientUnits="objectBoundingBox">
      <stop offset="0%" stop-color="#14B88A" stop-opacity="0.10"/>
      <stop offset="100%" stop-color="#14B88A" stop-opacity="0"/>
    </radialGradient>
  </defs>

  <!-- Background -->
  <rect width="1200" height="630" fill="#FFFCF6"/>
  <rect width="1200" height="630" fill="url(#grid)"/>
  <rect width="1200" height="630" fill="url(#glow-l)"/>
  <rect width="1200" height="630" fill="url(#glow-r)"/>
  <rect width="1200" height="630" fill="url(#glow-b)"/>

  <!-- Pixel mark icon -->
  <svg x="88" y="205" width="196" height="152" viewBox="17.5 27.5 85 65">
    <polyline points="48,32 22,60 48,88" fill="none" stroke="#5FBE85" stroke-width="9" stroke-linecap="round" stroke-linejoin="round"/>
    <polyline points="72,32 98,60 72,88" fill="none" stroke="#5FBE85" stroke-width="9" stroke-linecap="round" stroke-linejoin="round"/>
    <rect x="52" y="52" width="16" height="16" rx="3.5" fill="#FFB020"/>
  </svg>

  <!-- Vertical divider -->
  <line x1="346" y1="155" x2="346" y2="495" stroke="#211B12" stroke-opacity="0.1" stroke-width="1"/>

  <!-- Wordmark lockup: Pixel [icon] over PLUGINS -->
  <text x="396" y="290" font-family="Arial, Helvetica, sans-serif" font-size="80" font-weight="700" fill="#211B12" letter-spacing="-2">Pixel</text>
  <svg x="606" y="232" width="58" height="44" viewBox="17.5 27.5 85 65">
    <polyline points="48,32 22,60 48,88" fill="none" stroke="#5FBE85" stroke-width="9" stroke-linecap="round" stroke-linejoin="round"/>
    <polyline points="72,32 98,60 72,88" fill="none" stroke="#5FBE85" stroke-width="9" stroke-linecap="round" stroke-linejoin="round"/>
    <rect x="52" y="52" width="16" height="16" rx="3.5" fill="#FFB020"/>
  </svg>
  <text x="399" y="330" font-family="Arial, Helvetica, sans-serif" font-size="24" font-weight="700" fill="#7D7460" letter-spacing="8">PLUGINS</text>

  <!-- Tagline line 1 -->
  <text x="398" y="396" font-family="Arial, Helvetica, sans-serif" font-size="27" fill="#7D7460">Modern SaaS architecture, audit-ready compliance,</text>
  <!-- Tagline line 2 -->
  <text x="398" y="434" font-family="Arial, Helvetica, sans-serif" font-size="27" fill="#7D7460">and intelligent plugins — all crafted for growth.</text>

  <!-- Domain pill -->
  <rect x="396" y="472" width="252" height="44" rx="22" fill="#5FBE85" fill-opacity="0.14" stroke="#5FBE85" stroke-opacity="0.4" stroke-width="1"/>
  <text x="522" y="500" font-family="Arial, Helvetica, sans-serif" font-size="21" fill="#3A8F5F" text-anchor="middle" letter-spacing="0.3">pixelplugins.com</text>
</svg>
