<?xml version="1.0" encoding="UTF-8"?>
<svg id="Layer_1" xmlns="http://www.w3.org/2000/svg" xmlns:xlink="http://www.w3.org/1999/xlink" version="1.1" viewBox="0 0 1200 630">
  <!-- Generator: Adobe Illustrator 30.6.0, SVG Export Plug-In . SVG Version: 2.1.4 Build 109)  -->
  <defs>
    <style>
      .st0, .st1, .st2, .st3, .st4 {
        fill: none;
      }

      .st5 {
        fill: url(#grid);
      }

      .st6 {
        fill: url(#radial-gradient);
      }

      .st7 {
        fill: #ffb020;
      }

      .st8, .st9 {
        isolation: isolate;
      }

      .st9 {
        fill: #3a8f5f;
        font-family: ArialMT, Arial;
        font-size: 21px;
        letter-spacing: .01em;
      }

      .st10 {
        fill: #fffcf6;
      }

      .st1 {
        stroke-width: 6.09px;
      }

      .st1, .st11, .st3 {
        stroke: #5fbe85;
      }

      .st1, .st3 {
        stroke-linecap: round;
        stroke-linejoin: round;
      }

      .st11 {
        fill: #5fbe85;
        fill-opacity: .14;
        stroke-opacity: .4;
      }

      .st12 {
        fill: #211b12;
      }

      .st2 {
        stroke-opacity: .1;
      }

      .st2, .st4 {
        stroke: #211b12;
      }

      .st13 {
        fill: url(#radial-gradient1);
      }

      .st14 {
        fill: url(#radial-gradient2);
      }

      .st3 {
        stroke-width: 20.75px;
      }

      .st15 {
        fill: #7d7460;
      }

      .st4 {
        opacity: .05;
      }
    </style>
    <pattern id="grid" x="0" y="0" width="44" height="44" patternTransform="translate(32 -10701.1257) scale(1 -1)" patternUnits="userSpaceOnUse" viewBox="0 0 44 44">
      <g>
        <rect class="st0" width="44" height="44"/>
        <polyline class="st4" points="44 44 0 44 0 0"/>
      </g>
    </pattern>
    <radialGradient id="radial-gradient" cx="-603.5" cy="3145.79" fx="-603.5" fy="3145.79" r=".7" gradientTransform="translate(724196 1982164.6475) scale(1200 -630)" gradientUnits="userSpaceOnUse">
      <stop offset="0" stop-color="#5fbe85" stop-opacity=".16"/>
      <stop offset="1" stop-color="#5fbe85" stop-opacity="0"/>
    </radialGradient>
    <radialGradient id="radial-gradient1" cx="-602.5" cy="3145.99" fx="-602.5" fy="3145.99" r=".6" gradientTransform="translate(724196 1982164.6475) scale(1200 -630)" gradientUnits="userSpaceOnUse">
      <stop offset="0" stop-color="#ff6b57" stop-opacity=".14"/>
      <stop offset="1" stop-color="#ff6b57" stop-opacity="0"/>
    </radialGradient>
    <radialGradient id="radial-gradient2" cx="-602.8" cy="3145.29" fx="-602.8" fy="3145.29" r=".6" gradientTransform="translate(724196 1982164.6475) scale(1200 -630)" gradientUnits="userSpaceOnUse">
      <stop offset="0" stop-color="#14b88a" stop-opacity=".1"/>
      <stop offset="1" stop-color="#14b88a" stop-opacity="0"/>
    </radialGradient>
  </defs>
  <rect class="st10" width="1200" height="630"/>
  <rect class="st5" width="1200" height="630"/>
  <rect class="st6" width="1200" height="630"/>
  <rect class="st13" width="1200" height="630"/>
  <rect class="st14" width="1200" height="630"/>
  <polyline class="st3" points="158.33 216.44 98.38 281 158.33 345.56"/>
  <polyline class="st3" points="213.67 216.44 273.62 281 213.67 345.56"/>
  <rect class="st7" x="167.55" y="262.55" width="36.89" height="36.89" rx="8.07" ry="8.07"/>
  <line class="st2" x1="346" y1="155" x2="346" y2="495"/>
  <g class="st8">
    <path class="st12" d="M401.82,290v-57.27h18.55c7.03,0,11.61.29,13.75.86,3.28.86,6.03,2.73,8.24,5.61,2.21,2.88,3.32,6.6,3.32,11.15,0,3.52-.64,6.47-1.91,8.87-1.28,2.4-2.9,4.28-4.86,5.64-1.97,1.37-3.96,2.27-6,2.71-2.76.55-6.76.82-11.99.82h-7.54v21.6h-11.56ZM413.38,242.42v16.25h6.33c4.56,0,7.6-.3,9.14-.9,1.54-.6,2.74-1.54,3.61-2.81.87-1.28,1.31-2.76,1.31-4.45,0-2.08-.61-3.8-1.84-5.16-1.22-1.35-2.77-2.2-4.65-2.54-1.38-.26-4.15-.39-8.32-.39h-5.59Z"/>
    <path class="st12" d="M455.1,242.89v-10.16h10.98v10.16h-10.98ZM455.1,290v-41.48h10.98v41.48h-10.98Z"/>
    <path class="st12" d="M472.05,290l14.96-21.37-14.34-20.12h13.4l7.34,11.41,7.73-11.41h12.89l-14.06,19.65,15.35,21.84h-13.48l-8.44-12.85-8.52,12.85h-12.85Z"/>
    <path class="st12" d="M545.84,276.8l10.94,1.84c-1.41,4.01-3.63,7.06-6.66,9.16-3.03,2.1-6.83,3.14-11.39,3.14-7.21,0-12.55-2.36-16.02-7.07-2.73-3.78-4.1-8.54-4.1-14.3,0-6.88,1.8-12.26,5.39-16.15,3.59-3.89,8.14-5.84,13.63-5.84,6.17,0,11.04,2.04,14.61,6.11,3.57,4.08,5.27,10.32,5.12,18.73h-27.5c.08,3.26.96,5.79,2.66,7.6,1.69,1.81,3.8,2.71,6.33,2.71,1.72,0,3.16-.47,4.34-1.41s2.06-2.45,2.66-4.53ZM546.47,265.7c-.08-3.18-.9-5.59-2.46-7.25-1.56-1.65-3.46-2.48-5.7-2.48-2.4,0-4.38.87-5.94,2.62-1.56,1.75-2.33,4.12-2.3,7.11h16.41Z"/>
    <path class="st12" d="M566.31,290v-57.27h10.98v57.27h-10.98Z"/>
  </g>
  <g>
    <polyline class="st1" points="628.72 253.03 611.12 271.98 628.72 290.94"/>
    <polyline class="st1" points="644.96 253.03 662.56 271.98 644.96 290.94"/>
    <rect class="st7" x="631.43" y="266.57" width="10.83" height="10.83" rx="2.37" ry="2.37"/>
  </g>
  <g class="st8">
    <path class="st15" d="M401.82,330v-17.18h5.57c2.11,0,3.48.09,4.12.26.98.26,1.81.82,2.47,1.68s1,1.98,1,3.35c0,1.05-.19,1.94-.57,2.66s-.87,1.28-1.46,1.69-1.19.68-1.8.81c-.83.16-2.03.25-3.6.25h-2.26v6.48h-3.47ZM405.29,315.73v4.88h1.9c1.37,0,2.28-.09,2.74-.27s.82-.46,1.08-.84.39-.83.39-1.34c0-.62-.18-1.14-.55-1.55-.37-.41-.83-.66-1.39-.76-.41-.08-1.25-.12-2.5-.12h-1.68Z"/>
    <path class="st15" d="M425.91,330v-17.04h3.47v14.15h8.62v2.89h-12.09Z"/>
    <path class="st15" d="M448.45,312.82h3.47v9.31c0,1.48.04,2.43.13,2.87.15.7.5,1.27,1.06,1.69s1.32.64,2.29.64,1.73-.2,2.23-.6.8-.9.9-1.48.15-1.56.15-2.92v-9.5h3.47v9.02c0,2.06-.09,3.52-.28,4.37s-.53,1.57-1.04,2.16-1.18,1.05-2.02,1.4-1.95.52-3.3.52c-1.64,0-2.88-.19-3.73-.57s-1.52-.87-2.01-1.48-.82-1.24-.97-1.9c-.23-.98-.34-2.44-.34-4.36v-9.16Z"/>
    <path class="st15" d="M481.79,323.68v-2.89h7.48v6.84c-.73.7-1.78,1.32-3.16,1.86s-2.78.8-4.19.8c-1.8,0-3.36-.38-4.7-1.13s-2.34-1.83-3.01-3.23-1.01-2.93-1.01-4.58c0-1.79.38-3.38,1.12-4.77.75-1.39,1.85-2.46,3.29-3.2,1.1-.57,2.47-.86,4.11-.86,2.13,0,3.8.45,5,1.34s1.97,2.13,2.31,3.71l-3.45.64c-.24-.84-.7-1.51-1.37-2-.67-.49-1.5-.73-2.5-.73-1.52,0-2.72.48-3.62,1.44-.89.96-1.34,2.39-1.34,4.28,0,2.04.45,3.57,1.36,4.59s2.09,1.53,3.56,1.53c.73,0,1.46-.14,2.19-.43s1.36-.63,1.88-1.04v-2.18h-3.97Z"/>
    <path class="st15" d="M500.35,330v-17.18h3.47v17.18h-3.47Z"/>
    <path class="st15" d="M515.15,330v-17.18h3.38l7.03,11.47v-11.47h3.22v17.18h-3.48l-6.93-11.2v11.2h-3.22Z"/>
    <path class="st15" d="M539.56,324.41l3.38-.33c.2,1.13.62,1.96,1.24,2.5s1.46.8,2.51.8c1.12,0,1.96-.24,2.53-.71s.85-1.03.85-1.66c0-.41-.12-.75-.36-1.04s-.65-.53-1.25-.74c-.41-.14-1.33-.39-2.78-.75-1.86-.46-3.16-1.03-3.91-1.7-1.05-.95-1.58-2.1-1.58-3.46,0-.88.25-1.69.74-2.46s1.21-1.34,2.14-1.74,2.06-.6,3.38-.6c2.16,0,3.78.47,4.87,1.42s1.66,2.21,1.72,3.79l-3.47.15c-.15-.88-.47-1.52-.96-1.9-.49-.39-1.22-.58-2.2-.58s-1.8.21-2.37.62c-.37.27-.55.62-.55,1.07,0,.41.17.75.52,1.04.44.37,1.5.75,3.19,1.15s2.94.81,3.74,1.24,1.44,1.01,1.9,1.75.69,1.65.69,2.74c0,.98-.27,1.91-.82,2.77s-1.32,1.5-2.32,1.92-2.25.63-3.74.63c-2.17,0-3.84-.5-5-1.51s-1.86-2.47-2.09-4.39Z"/>
  </g>
  <g class="st8">
    <path class="st15" d="M401.82,396v-19.33h2.56v7.94h10.05v-7.94h2.56v19.33h-2.56v-9.11h-10.05v9.11h-2.56Z"/>
    <path class="st15" d="M420.95,379.4v-2.73h2.37v2.73h-2.37ZM420.95,396v-14h2.37v14h-2.37Z"/>
    <path class="st15" d="M426.5,397.16l2.31.34c.1.71.36,1.23.8,1.56.59.44,1.39.66,2.41.66,1.1,0,1.95-.22,2.54-.66s1-1.05,1.21-1.85c.12-.48.18-1.5.17-3.04-1.04,1.22-2.33,1.83-3.88,1.83-1.92,0-3.41-.7-4.47-2.08s-1.58-3.05-1.58-5c0-1.34.24-2.57.73-3.7.48-1.13,1.18-2,2.1-2.62.92-.62,2-.92,3.24-.92,1.65,0,3.01.67,4.09,2v-1.69h2.19v12.1c0,2.18-.22,3.72-.67,4.63-.44.91-1.15,1.63-2.11,2.16-.96.53-2.15.79-3.55.79-1.67,0-3.02-.38-4.05-1.13s-1.52-1.88-1.49-3.39ZM428.46,388.75c0,1.84.36,3.18,1.09,4.02s1.64,1.27,2.74,1.27,2-.42,2.74-1.26c.74-.84,1.11-2.15,1.11-3.95s-.38-3.01-1.14-3.88c-.76-.87-1.68-1.3-2.75-1.3s-1.95.43-2.69,1.29-1.11,2.13-1.11,3.82Z"/>
    <path class="st15" d="M441.95,396v-19.33h2.37v6.94c1.11-1.28,2.5-1.93,4.19-1.93,1.04,0,1.94.21,2.7.61s1.31.97,1.64,1.7c.33.72.49,1.77.49,3.14v8.87h-2.37v-8.87c0-1.19-.26-2.05-.77-2.59-.51-.54-1.24-.81-2.18-.81-.7,0-1.36.18-1.98.55-.62.36-1.06.86-1.32,1.48-.26.62-.4,1.49-.4,2.58v7.66h-2.37Z"/>
    <path class="st15" d="M456.91,396v-19.33h2.37v19.33h-2.37Z"/>
    <path class="st15" d="M462.86,401.39l-.26-2.23c.52.14.97.21,1.36.21.53,0,.95-.09,1.27-.26s.58-.42.78-.74c.15-.24.39-.83.73-1.77.04-.13.11-.32.21-.58l-5.31-14.03h2.56l2.91,8.11c.38,1.03.72,2.11,1.02,3.24.27-1.09.6-2.15.98-3.19l2.99-8.16h2.37l-5.33,14.24c-.57,1.54-1.02,2.6-1.33,3.18-.42.78-.91,1.36-1.45,1.72s-1.2.55-1.95.55c-.46,0-.97-.1-1.53-.29Z"/>
    <path class="st15" d="M483.02,391.82l2.35-.37c.13.94.5,1.66,1.1,2.16.6.5,1.44.75,2.52.75s1.9-.22,2.43-.67.79-.96.79-1.56c0-.54-.23-.96-.7-1.27-.33-.21-1.13-.48-2.43-.8-1.74-.44-2.95-.82-3.62-1.14-.67-.32-1.18-.76-1.53-1.33-.35-.57-.52-1.19-.52-1.88,0-.62.14-1.2.43-1.73s.67-.97,1.17-1.32c.37-.27.87-.5,1.51-.69.64-.19,1.32-.28,2.05-.28,1.1,0,2.06.16,2.89.47.83.32,1.44.75,1.84,1.29.4.54.67,1.26.82,2.17l-2.32.32c-.11-.72-.41-1.28-.92-1.69s-1.22-.61-2.14-.61c-1.09,0-1.87.18-2.33.54-.47.36-.7.78-.7,1.27,0,.31.1.58.29.83.19.26.5.47.91.63.24.09.94.29,2.1.61,1.68.45,2.85.81,3.51,1.1.66.29,1.18.7,1.56,1.25s.57,1.22.57,2.03-.23,1.54-.69,2.23c-.46.7-1.13,1.24-2,1.62s-1.85.57-2.95.57c-1.82,0-3.21-.38-4.16-1.13s-1.56-1.88-1.83-3.36Z"/>
    <path class="st15" d="M506.6,390.87l2.33.3c-.25,1.61-.91,2.87-1.96,3.78-1.05.91-2.34,1.37-3.87,1.37-1.92,0-3.46-.63-4.62-1.88-1.17-1.25-1.75-3.05-1.75-5.38,0-1.51.25-2.84.75-3.97.5-1.13,1.26-1.98,2.29-2.55,1.02-.57,2.14-.85,3.34-.85,1.52,0,2.76.38,3.73,1.15s1.59,1.86,1.86,3.28l-2.31.36c-.22-.94-.61-1.65-1.17-2.12-.56-.47-1.23-.71-2.02-.71-1.2,0-2.17.43-2.91,1.29-.75.86-1.12,2.21-1.12,4.07s.36,3.25,1.08,4.1c.72.85,1.66,1.28,2.82,1.28.93,0,1.71-.29,2.33-.86.62-.57,1.02-1.45,1.19-2.64Z"/>
    <path class="st15" d="M520.1,394.27c-.88.75-1.73,1.27-2.54,1.58-.81.31-1.69.46-2.62.46-1.54,0-2.72-.38-3.55-1.13-.83-.75-1.24-1.71-1.24-2.88,0-.69.16-1.31.47-1.88s.72-1.02,1.23-1.37c.5-.34,1.07-.6,1.71-.78.47-.12,1.17-.24,2.11-.36,1.92-.23,3.33-.5,4.23-.82,0-.32.01-.53.01-.62,0-.97-.22-1.65-.67-2.04-.61-.54-1.51-.8-2.7-.8-1.12,0-1.94.2-2.47.59-.53.39-.93,1.08-1.18,2.08l-2.32-.32c.21-.99.56-1.8,1.04-2.41.48-.61,1.18-1.08,2.1-1.41.91-.33,1.97-.49,3.18-.49s2.17.14,2.91.42,1.3.63,1.65,1.06c.35.43.6.96.74,1.62.08.4.12,1.13.12,2.19v3.16c0,2.21.05,3.6.15,4.19.1.58.3,1.14.6,1.68h-2.48c-.25-.49-.4-1.07-.47-1.73ZM519.91,388.97c-.86.35-2.15.65-3.88.9-.98.14-1.67.3-2.07.47s-.72.43-.94.77-.33.71-.33,1.13c0,.63.24,1.16.72,1.58.48.42,1.18.63,2.1.63s1.73-.2,2.44-.6,1.23-.95,1.57-1.64c.25-.54.38-1.33.38-2.37v-.87Z"/>
    <path class="st15" d="M525.93,396v-19.33h2.37v19.33h-2.37Z"/>
    <path class="st15" d="M541.12,394.27c-.88.75-1.73,1.27-2.54,1.58-.81.31-1.69.46-2.62.46-1.54,0-2.72-.38-3.55-1.13-.83-.75-1.24-1.71-1.24-2.88,0-.69.16-1.31.47-1.88s.72-1.02,1.23-1.37c.5-.34,1.07-.6,1.71-.78.47-.12,1.17-.24,2.11-.36,1.92-.23,3.33-.5,4.23-.82,0-.32.01-.53.01-.62,0-.97-.22-1.65-.67-2.04-.61-.54-1.51-.8-2.7-.8-1.12,0-1.94.2-2.47.59-.53.39-.93,1.08-1.18,2.08l-2.32-.32c.21-.99.56-1.8,1.04-2.41.48-.61,1.18-1.08,2.1-1.41.91-.33,1.97-.49,3.18-.49s2.17.14,2.91.42,1.3.63,1.65,1.06c.35.43.6.96.74,1.62.08.4.12,1.13.12,2.19v3.16c0,2.21.05,3.6.15,4.19.1.58.3,1.14.6,1.68h-2.48c-.25-.49-.4-1.07-.47-1.73ZM540.92,388.97c-.86.35-2.15.65-3.88.9-.98.14-1.67.3-2.07.47s-.72.43-.94.77-.33.71-.33,1.13c0,.63.24,1.16.72,1.58.48.42,1.18.63,2.1.63s1.73-.2,2.44-.6,1.23-.95,1.57-1.64c.25-.54.38-1.33.38-2.37v-.87Z"/>
    <path class="st15" d="M549.19,396h-2.2v-19.33h2.37v6.9c1-1.26,2.28-1.89,3.84-1.89.86,0,1.68.17,2.45.52.77.35,1.4.83,1.9,1.46.5.63.89,1.39,1.17,2.28.28.89.42,1.84.42,2.85,0,2.4-.59,4.25-1.78,5.56-1.19,1.31-2.61,1.96-4.27,1.96s-2.95-.69-3.89-2.07v1.75ZM549.16,388.9c0,1.68.23,2.89.69,3.64.75,1.22,1.76,1.83,3.03,1.83,1.04,0,1.93-.45,2.69-1.35s1.13-2.24,1.13-4.03-.36-3.18-1.09-4.05c-.73-.87-1.6-1.31-2.63-1.31s-1.93.45-2.69,1.35-1.13,2.21-1.13,3.91Z"/>
    <path class="st15" d="M561.96,396v-19.33h2.37v19.33h-2.37Z"/>
    <path class="st15" d="M577.6,391.49l2.45.3c-.39,1.43-1.1,2.54-2.15,3.33s-2.38,1.19-4.01,1.19c-2.05,0-3.67-.63-4.87-1.89-1.2-1.26-1.8-3.03-1.8-5.31s.61-4.18,1.82-5.48,2.79-1.95,4.72-1.95,3.4.64,4.59,1.91c1.19,1.28,1.78,3.07,1.78,5.38,0,.14,0,.35-.01.63h-10.44c.09,1.54.52,2.72,1.31,3.53.78.82,1.76,1.23,2.93,1.23.87,0,1.61-.23,2.23-.69s1.1-1.19,1.46-2.19ZM569.81,387.65h7.82c-.11-1.18-.4-2.06-.9-2.65-.76-.91-1.74-1.37-2.94-1.37-1.09,0-2.01.37-2.75,1.1-.74.73-1.15,1.71-1.23,2.93Z"/>
    <path class="st15" d="M589.96,389.79l2.41-.21c.11.97.38,1.76.8,2.38s1.07,1.12,1.94,1.5c.88.38,1.87.57,2.97.57.98,0,1.84-.14,2.58-.44.75-.29,1.3-.69,1.67-1.19.36-.5.55-1.06.55-1.65s-.18-1.13-.53-1.59c-.35-.45-.93-.83-1.74-1.14-.52-.2-1.67-.52-3.44-.94-1.78-.43-3.02-.83-3.73-1.21-.92-.48-1.61-1.08-2.06-1.8-.45-.71-.68-1.52-.68-2.4,0-.98.28-1.89.83-2.74s1.36-1.49,2.43-1.93,2.25-.66,3.55-.66c1.43,0,2.7.23,3.79.69,1.09.46,1.94,1.14,2.52,2.04s.91,1.91.95,3.04l-2.45.19c-.13-1.22-.58-2.14-1.34-2.77-.76-.62-1.88-.94-3.37-.94s-2.67.28-3.38.85-1.06,1.25-1.06,2.05c0,.69.25,1.27.75,1.71.49.45,1.78.91,3.86,1.38,2.08.47,3.5.88,4.28,1.23,1.12.52,1.96,1.18,2.49,1.97.54.79.8,1.71.8,2.75s-.29,2-.88,2.91c-.59.91-1.43,1.62-2.54,2.12-1.1.51-2.34.76-3.72.76-1.75,0-3.21-.26-4.4-.77s-2.11-1.28-2.78-2.3c-.67-1.02-1.03-2.18-1.06-3.47Z"/>
    <path class="st15" d="M617.68,394.27c-.88.75-1.73,1.27-2.54,1.58-.81.31-1.68.46-2.62.46-1.54,0-2.72-.38-3.55-1.13-.83-.75-1.24-1.71-1.24-2.88,0-.69.16-1.31.47-1.88.31-.57.72-1.02,1.23-1.37.5-.34,1.07-.6,1.71-.78.46-.12,1.17-.24,2.11-.36,1.92-.23,3.33-.5,4.23-.82,0-.32.01-.53.01-.62,0-.97-.22-1.65-.67-2.04-.61-.54-1.51-.8-2.7-.8-1.12,0-1.94.2-2.47.59-.53.39-.93,1.08-1.18,2.08l-2.32-.32c.21-.99.56-1.8,1.04-2.41.48-.61,1.18-1.08,2.1-1.41.91-.33,1.97-.49,3.18-.49s2.17.14,2.91.42,1.3.63,1.65,1.06c.35.43.6.96.74,1.62.08.4.12,1.13.12,2.19v3.16c0,2.21.05,3.6.15,4.19.1.58.3,1.14.6,1.68h-2.48c-.25-.49-.4-1.07-.47-1.73ZM617.48,388.97c-.86.35-2.15.65-3.88.9-.98.14-1.67.3-2.07.47s-.72.43-.94.77-.33.71-.33,1.13c0,.63.24,1.16.72,1.58s1.18.63,2.1.63,1.73-.2,2.44-.6,1.24-.95,1.57-1.64c.25-.54.38-1.33.38-2.37v-.87Z"/>
    <path class="st15" d="M632.69,394.27c-.88.75-1.72,1.27-2.54,1.58-.81.31-1.68.46-2.62.46-1.54,0-2.72-.38-3.55-1.13-.83-.75-1.24-1.71-1.24-2.88,0-.69.16-1.31.47-1.88s.72-1.02,1.23-1.37c.5-.34,1.07-.6,1.71-.78.47-.12,1.17-.24,2.11-.36,1.92-.23,3.33-.5,4.23-.82,0-.32.01-.53.01-.62,0-.97-.22-1.65-.67-2.04-.61-.54-1.51-.8-2.7-.8-1.12,0-1.94.2-2.47.59-.53.39-.93,1.08-1.18,2.08l-2.32-.32c.21-.99.56-1.8,1.04-2.41.48-.61,1.18-1.08,2.1-1.41.91-.33,1.97-.49,3.18-.49s2.17.14,2.91.42c.75.28,1.3.63,1.65,1.06.35.43.6.96.74,1.62.08.4.12,1.13.12,2.19v3.16c0,2.21.05,3.6.15,4.19.1.58.3,1.14.6,1.68h-2.48c-.25-.49-.4-1.07-.47-1.73ZM632.49,388.97c-.86.35-2.15.65-3.88.9-.97.14-1.67.3-2.07.47s-.72.43-.94.77c-.22.34-.33.71-.33,1.13,0,.63.24,1.16.72,1.58.48.42,1.18.63,2.1.63s1.73-.2,2.44-.6c.71-.4,1.23-.95,1.57-1.64.25-.54.38-1.33.38-2.37v-.87Z"/>
    <path class="st15" d="M638,389.79l2.41-.21c.11.97.38,1.76.8,2.38.42.62,1.07,1.12,1.94,1.5.88.38,1.87.57,2.97.57.98,0,1.84-.14,2.58-.44.75-.29,1.3-.69,1.67-1.19.37-.5.55-1.06.55-1.65s-.18-1.13-.53-1.59-.93-.83-1.74-1.14c-.52-.2-1.67-.52-3.44-.94-1.78-.43-3.02-.83-3.73-1.21-.92-.48-1.61-1.08-2.06-1.8-.45-.71-.68-1.52-.68-2.4,0-.98.28-1.89.83-2.74s1.36-1.49,2.43-1.93,2.25-.66,3.55-.66c1.43,0,2.7.23,3.79.69s1.94,1.14,2.52,2.04.91,1.91.95,3.04l-2.45.19c-.13-1.22-.58-2.14-1.34-2.77-.76-.62-1.88-.94-3.37-.94s-2.67.28-3.38.85c-.71.57-1.06,1.25-1.06,2.05,0,.69.25,1.27.75,1.71.49.45,1.78.91,3.86,1.38,2.08.47,3.5.88,4.28,1.23,1.12.52,1.96,1.18,2.49,1.97.54.79.8,1.71.8,2.75s-.29,2-.88,2.91c-.59.91-1.43,1.62-2.54,2.12-1.1.51-2.34.76-3.72.76-1.75,0-3.21-.26-4.4-.77-1.18-.51-2.11-1.28-2.78-2.3-.67-1.02-1.03-2.18-1.06-3.47Z"/>
    <path class="st15" d="M673.22,394.27c-.88.75-1.73,1.27-2.54,1.58-.81.31-1.69.46-2.62.46-1.54,0-2.72-.38-3.55-1.13-.83-.75-1.24-1.71-1.24-2.88,0-.69.16-1.31.47-1.88s.72-1.02,1.23-1.37c.5-.34,1.07-.6,1.71-.78.47-.12,1.17-.24,2.11-.36,1.92-.23,3.33-.5,4.23-.82,0-.32.01-.53.01-.62,0-.97-.22-1.65-.67-2.04-.61-.54-1.51-.8-2.7-.8-1.12,0-1.94.2-2.47.59-.53.39-.92,1.08-1.18,2.08l-2.32-.32c.21-.99.56-1.8,1.04-2.41.48-.61,1.18-1.08,2.1-1.41.91-.33,1.97-.49,3.18-.49s2.17.14,2.91.42c.75.28,1.3.63,1.65,1.06.35.43.6.96.74,1.62.08.4.12,1.13.12,2.19v3.16c0,2.21.05,3.6.15,4.19.1.58.3,1.14.6,1.68h-2.48c-.25-.49-.4-1.07-.47-1.73ZM673.02,388.97c-.86.35-2.15.65-3.88.9-.98.14-1.67.3-2.07.47s-.72.43-.94.77c-.22.34-.33.71-.33,1.13,0,.63.24,1.16.72,1.58.48.42,1.18.63,2.1.63s1.73-.2,2.44-.6c.71-.4,1.24-.95,1.57-1.64.25-.54.38-1.33.38-2.37v-.87Z"/>
    <path class="st15" d="M679.07,396v-14h2.14v2.12c.54-.99,1.05-1.65,1.51-1.96s.97-.47,1.52-.47c.8,0,1.61.26,2.44.77l-.82,2.2c-.58-.34-1.16-.51-1.74-.51-.52,0-.98.16-1.4.47-.41.31-.71.75-.88,1.3-.26.84-.4,1.77-.4,2.77v7.33h-2.37Z"/>
    <path class="st15" d="M697.22,390.87l2.33.3c-.25,1.61-.91,2.87-1.96,3.78-1.05.91-2.34,1.37-3.87,1.37-1.92,0-3.46-.63-4.62-1.88-1.17-1.25-1.75-3.05-1.75-5.38,0-1.51.25-2.84.75-3.97.5-1.13,1.26-1.98,2.29-2.55,1.02-.57,2.14-.85,3.34-.85,1.52,0,2.76.38,3.73,1.15s1.59,1.86,1.86,3.28l-2.31.36c-.22-.94-.61-1.65-1.17-2.12-.56-.47-1.23-.71-2.02-.71-1.2,0-2.17.43-2.91,1.29-.75.86-1.12,2.21-1.12,4.07s.36,3.25,1.08,4.1c.72.85,1.66,1.28,2.82,1.28.93,0,1.71-.29,2.33-.86.62-.57,1.02-1.45,1.19-2.64Z"/>
    <path class="st15" d="M701.59,396v-19.33h2.37v6.94c1.11-1.28,2.5-1.93,4.19-1.93,1.04,0,1.94.21,2.7.61.76.41,1.31.97,1.64,1.7s.49,1.77.49,3.14v8.87h-2.37v-8.87c0-1.19-.26-2.05-.77-2.59-.51-.54-1.24-.81-2.18-.81-.7,0-1.36.18-1.98.55-.62.36-1.06.86-1.32,1.48-.26.62-.4,1.49-.4,2.58v7.66h-2.37Z"/>
    <path class="st15" d="M716.62,379.4v-2.73h2.37v2.73h-2.37ZM716.62,396v-14h2.37v14h-2.37Z"/>
    <path class="st15" d="M727.79,393.88l.34,2.1c-.67.14-1.27.21-1.79.21-.86,0-1.53-.14-2-.41s-.81-.63-1-1.07-.29-1.38-.29-2.8v-8.06h-1.74v-1.85h1.74v-3.47l2.36-1.42v4.89h2.39v1.85h-2.39v8.19c0,.68.04,1.11.12,1.3s.22.35.41.46c.19.11.46.17.81.17.26,0,.61-.03,1.04-.09Z"/>
    <path class="st15" d="M739.69,391.49l2.45.3c-.39,1.43-1.1,2.54-2.15,3.33-1.04.79-2.38,1.19-4.01,1.19-2.05,0-3.67-.63-4.87-1.89-1.2-1.26-1.8-3.03-1.8-5.31s.61-4.18,1.82-5.48,2.79-1.95,4.72-1.95,3.4.64,4.59,1.91c1.19,1.28,1.78,3.07,1.78,5.38,0,.14,0,.35-.01.63h-10.44c.09,1.54.52,2.72,1.31,3.53.78.82,1.76,1.23,2.93,1.23.87,0,1.61-.23,2.23-.69s1.1-1.19,1.46-2.19ZM731.9,387.65h7.82c-.11-1.18-.4-2.06-.9-2.65-.76-.91-1.74-1.37-2.94-1.37-1.09,0-2.01.37-2.75,1.1-.74.73-1.15,1.71-1.23,2.93Z"/>
    <path class="st15" d="M754.26,390.87l2.33.3c-.25,1.61-.91,2.87-1.96,3.78s-2.34,1.37-3.87,1.37c-1.92,0-3.46-.63-4.62-1.88s-1.75-3.05-1.75-5.38c0-1.51.25-2.84.75-3.97.5-1.13,1.26-1.98,2.29-2.55,1.02-.57,2.14-.85,3.34-.85,1.52,0,2.76.38,3.73,1.15s1.59,1.86,1.86,3.28l-2.31.36c-.22-.94-.61-1.65-1.17-2.12s-1.23-.71-2.02-.71c-1.2,0-2.17.43-2.91,1.29-.75.86-1.12,2.21-1.12,4.07s.36,3.25,1.08,4.1c.72.85,1.66,1.28,2.82,1.28.93,0,1.71-.29,2.33-.86.62-.57,1.02-1.45,1.19-2.64Z"/>
    <path class="st15" d="M763.8,393.88l.34,2.1c-.67.14-1.27.21-1.79.21-.86,0-1.53-.14-2-.41s-.81-.63-1-1.07-.29-1.38-.29-2.8v-8.06h-1.74v-1.85h1.74v-3.47l2.36-1.42v4.89h2.39v1.85h-2.39v8.19c0,.68.04,1.11.12,1.3s.22.35.41.46c.19.11.46.17.81.17.26,0,.61-.03,1.04-.09Z"/>
    <path class="st15" d="M775.3,396v-2.06c-1.09,1.58-2.57,2.37-4.44,2.37-.83,0-1.6-.16-2.31-.47-.72-.32-1.25-.71-1.6-1.19s-.59-1.07-.73-1.76c-.1-.47-.14-1.21-.14-2.21v-8.68h2.37v7.77c0,1.24.05,2.07.14,2.51.15.62.47,1.11.95,1.47s1.08.54,1.79.54,1.38-.18,2-.55c.62-.36,1.07-.86,1.33-1.49.26-.63.39-1.54.39-2.74v-7.5h2.37v14h-2.12Z"/>
    <path class="st15" d="M781.11,396v-14h2.14v2.12c.54-.99,1.05-1.65,1.51-1.96s.97-.47,1.52-.47c.8,0,1.61.26,2.44.77l-.82,2.2c-.58-.34-1.16-.51-1.74-.51-.52,0-.98.16-1.4.47-.41.31-.71.75-.88,1.3-.26.84-.4,1.77-.4,2.77v7.33h-2.37Z"/>
    <path class="st15" d="M799.71,391.49l2.45.3c-.39,1.43-1.1,2.54-2.15,3.33s-2.38,1.19-4.01,1.19c-2.05,0-3.67-.63-4.87-1.89s-1.8-3.03-1.8-5.31.61-4.18,1.82-5.48,2.79-1.95,4.72-1.95,3.4.64,4.59,1.91c1.19,1.28,1.78,3.07,1.78,5.38,0,.14,0,.35-.01.63h-10.44c.09,1.54.52,2.72,1.3,3.53.78.82,1.76,1.23,2.93,1.23.87,0,1.61-.23,2.23-.69s1.1-1.19,1.46-2.19ZM791.92,387.65h7.82c-.11-1.18-.4-2.06-.9-2.65-.76-.91-1.74-1.37-2.94-1.37-1.09,0-2.01.37-2.75,1.1-.74.73-1.15,1.71-1.23,2.93Z"/>
    <path class="st15" d="M805.77,396v-2.7h2.7v2.7c0,.99-.18,1.79-.53,2.41-.35.61-.91,1.08-1.67,1.42l-.66-1.01c.5-.22.87-.54,1.11-.97.24-.43.37-1.04.4-1.84h-1.34Z"/>
  </g>
  <g class="st8">
    <path class="st15" d="M401.82,434l7.42-19.33h2.76l7.91,19.33h-2.91l-2.25-5.85h-8.08l-2.12,5.85h-2.72ZM407.4,426.06h6.55l-2.02-5.35c-.62-1.63-1.07-2.96-1.37-4.01-.25,1.24-.59,2.47-1.04,3.69l-2.12,5.67Z"/>
    <path class="st15" d="M422.39,434v-19.33h2.56v19.33h-2.56Z"/>
    <path class="st15" d="M445.79,432.27c-.88.75-1.73,1.27-2.54,1.58-.81.31-1.69.46-2.62.46-1.54,0-2.72-.38-3.55-1.13-.83-.75-1.24-1.71-1.24-2.88,0-.69.16-1.31.47-1.88s.72-1.02,1.23-1.37c.5-.34,1.07-.6,1.71-.78.47-.12,1.17-.24,2.11-.36,1.92-.23,3.33-.5,4.23-.82,0-.32.01-.53.01-.62,0-.97-.22-1.65-.67-2.04-.61-.54-1.51-.8-2.7-.8-1.12,0-1.94.2-2.47.59-.53.39-.93,1.08-1.18,2.08l-2.32-.32c.21-.99.56-1.8,1.04-2.41.48-.61,1.18-1.08,2.1-1.41.91-.33,1.97-.49,3.18-.49s2.17.14,2.91.42,1.3.63,1.65,1.06c.35.43.6.96.74,1.62.08.4.12,1.13.12,2.19v3.16c0,2.21.05,3.6.15,4.19.1.58.3,1.14.6,1.68h-2.48c-.25-.49-.4-1.07-.47-1.73ZM445.59,426.97c-.86.35-2.15.65-3.88.9-.98.14-1.67.3-2.07.47s-.72.43-.94.77-.33.71-.33,1.13c0,.63.24,1.16.72,1.58.48.42,1.18.63,2.1.63s1.73-.2,2.44-.6,1.23-.95,1.57-1.64c.25-.54.38-1.33.38-2.37v-.87Z"/>
    <path class="st15" d="M451.67,434v-14h2.14v1.99c1.03-1.54,2.51-2.31,4.46-2.31.84,0,1.62.15,2.33.46s1.24.7,1.59,1.19.6,1.08.74,1.75c.09.44.13,1.21.13,2.31v8.61h-2.37v-8.52c0-.97-.09-1.69-.28-2.17s-.51-.86-.98-1.15c-.47-.29-1.02-.43-1.65-.43-1.01,0-1.88.32-2.62.96-.73.64-1.1,1.86-1.1,3.65v7.65h-2.37Z"/>
    <path class="st15" d="M475.77,434v-1.77c-.89,1.39-2.19,2.08-3.92,2.08-1.12,0-2.14-.31-3.08-.92-.94-.62-1.66-1.47-2.17-2.58-.51-1.1-.77-2.37-.77-3.8s.23-2.66.7-3.8,1.16-2.01,2.1-2.62c.93-.61,1.97-.91,3.12-.91.84,0,1.6.18,2.25.54.66.36,1.2.82,1.61,1.39v-6.94h2.36v19.33h-2.2ZM468.27,427.01c0,1.79.38,3.13,1.13,4.02.76.89,1.65,1.33,2.68,1.33s1.92-.42,2.64-1.27c.72-.85,1.09-2.14,1.09-3.88,0-1.92-.37-3.32-1.11-4.22s-1.65-1.35-2.73-1.35-1.94.43-2.64,1.29-1.06,2.22-1.06,4.07Z"/>
    <path class="st15" d="M489.4,434v-19.33h7.25c1.48,0,2.66.2,3.55.59.89.39,1.59.99,2.1,1.8.5.81.76,1.66.76,2.55,0,.83-.22,1.6-.67,2.33-.45.73-1.12,1.32-2.03,1.77,1.17.34,2.07.93,2.7,1.75s.94,1.8.94,2.93c0,.91-.19,1.75-.57,2.53-.38.78-.85,1.38-1.42,1.8s-1.27.74-2.12.96c-.85.22-1.89.32-3.12.32h-7.37ZM491.96,422.79h4.18c1.13,0,1.95-.07,2.44-.22.65-.19,1.14-.52,1.47-.96.33-.45.49-1.01.49-1.69s-.15-1.21-.46-1.7c-.31-.49-.75-.82-1.32-1-.57-.18-1.55-.27-2.94-.27h-3.86v5.84ZM491.96,431.72h4.81c.83,0,1.41-.03,1.74-.09.59-.11,1.08-.28,1.48-.53s.72-.61.98-1.07c.25-.47.38-1.01.38-1.63,0-.72-.18-1.35-.55-1.88s-.88-.9-1.54-1.12c-.65-.21-1.6-.32-2.83-.32h-4.47v6.64Z"/>
    <path class="st15" d="M519.02,431.72v2.28h-12.77c-.02-.57.07-1.12.28-1.65.33-.87.85-1.73,1.56-2.57s1.75-1.82,3.1-2.93c2.1-1.72,3.52-3.09,4.26-4.09.74-1.01,1.11-1.96,1.11-2.85s-.34-1.73-1.01-2.38c-.67-.65-1.55-.97-2.63-.97-1.14,0-2.06.34-2.74,1.03s-1.03,1.63-1.04,2.85l-2.44-.25c.17-1.82.8-3.21,1.89-4.16s2.55-1.43,4.39-1.43,3.32.51,4.4,1.54c1.08,1.03,1.62,2.3,1.62,3.82,0,.77-.16,1.53-.47,2.28-.32.75-.84,1.53-1.58,2.36s-1.95,1.96-3.66,3.4c-1.42,1.2-2.34,2.01-2.74,2.43s-.74.86-1,1.29h9.48Z"/>
    <path class="st15" d="M522.42,434v-19.33h7.25c1.48,0,2.66.2,3.55.59.89.39,1.59.99,2.1,1.8.5.81.76,1.66.76,2.55,0,.83-.22,1.6-.67,2.33-.45.73-1.12,1.32-2.03,1.77,1.17.34,2.07.93,2.7,1.75s.94,1.8.94,2.93c0,.91-.19,1.75-.57,2.53-.38.78-.85,1.38-1.42,1.8s-1.27.74-2.12.96c-.85.22-1.89.32-3.12.32h-7.37ZM524.98,422.79h4.18c1.13,0,1.95-.07,2.44-.22.65-.19,1.14-.52,1.47-.96.33-.45.49-1.01.49-1.69s-.15-1.21-.46-1.7c-.31-.49-.75-.82-1.32-1-.57-.18-1.55-.27-2.94-.27h-3.86v5.84ZM524.98,431.72h4.81c.83,0,1.41-.03,1.74-.09.59-.11,1.08-.28,1.48-.53s.72-.61.98-1.07c.25-.47.38-1.01.38-1.63,0-.72-.18-1.35-.55-1.88s-.88-.9-1.54-1.12c-.65-.21-1.6-.32-2.83-.32h-4.47v6.64Z"/>
    <path class="st15" d="M546.79,429.82l2.35-.37c.13.94.5,1.66,1.1,2.16.6.5,1.44.75,2.52.75s1.9-.22,2.43-.67.79-.96.79-1.56c0-.54-.23-.96-.7-1.27-.33-.21-1.13-.48-2.43-.8-1.74-.44-2.95-.82-3.62-1.14-.67-.32-1.18-.76-1.53-1.33-.35-.57-.52-1.19-.52-1.88,0-.62.14-1.2.43-1.73s.67-.97,1.17-1.32c.37-.27.87-.5,1.51-.69.64-.19,1.32-.28,2.05-.28,1.1,0,2.06.16,2.89.47.83.32,1.44.75,1.84,1.29.4.54.67,1.26.82,2.17l-2.32.32c-.11-.72-.41-1.28-.92-1.69s-1.22-.61-2.14-.61c-1.09,0-1.87.18-2.33.54-.47.36-.7.78-.7,1.27,0,.31.1.58.29.83.19.26.5.47.91.63.24.09.94.29,2.1.61,1.68.45,2.85.81,3.51,1.1.66.29,1.18.7,1.56,1.25s.57,1.22.57,2.03-.23,1.54-.69,2.23c-.46.7-1.13,1.24-2,1.62s-1.85.57-2.95.57c-1.82,0-3.21-.38-4.16-1.13s-1.56-1.88-1.83-3.36Z"/>
    <path class="st15" d="M560.35,427c0-2.59.72-4.51,2.16-5.76,1.2-1.04,2.67-1.56,4.4-1.56,1.92,0,3.5.63,4.72,1.89s1.83,3,1.83,5.23c0,1.8-.27,3.22-.81,4.25-.54,1.03-1.33,1.84-2.36,2.41-1.03.57-2.16.86-3.38.86-1.96,0-3.54-.63-4.75-1.88-1.21-1.26-1.81-3.07-1.81-5.43ZM562.79,427c0,1.79.39,3.13,1.17,4.03.78.89,1.77,1.34,2.95,1.34s2.16-.45,2.94-1.35,1.17-2.26,1.17-4.1c0-1.73-.39-3.04-1.18-3.94-.79-.89-1.76-1.34-2.93-1.34s-2.17.44-2.95,1.33c-.78.89-1.17,2.23-1.17,4.02Z"/>
    <path class="st15" d="M576.2,434v-19.33h2.37v19.33h-2.37Z"/>
    <path class="st15" d="M591.43,434v-2.06c-1.09,1.58-2.57,2.37-4.44,2.37-.83,0-1.6-.16-2.31-.47-.72-.32-1.25-.71-1.6-1.19s-.59-1.07-.73-1.76c-.1-.47-.15-1.21-.15-2.21v-8.68h2.37v7.77c0,1.24.05,2.07.15,2.51.15.62.47,1.11.95,1.47s1.08.54,1.79.54,1.38-.18,2-.55c.62-.36,1.07-.86,1.33-1.49.26-.63.39-1.54.39-2.74v-7.5h2.37v14h-2.12Z"/>
    <path class="st15" d="M602.45,431.88l.34,2.1c-.67.14-1.27.21-1.79.21-.86,0-1.53-.14-2-.41s-.81-.63-1-1.07-.29-1.38-.29-2.8v-8.06h-1.74v-1.85h1.74v-3.47l2.36-1.42v4.89h2.39v1.85h-2.39v8.19c0,.68.04,1.11.13,1.3.08.19.22.35.41.46.19.11.46.17.81.17.26,0,.61-.03,1.04-.09Z"/>
    <path class="st15" d="M604.78,417.4v-2.73h2.37v2.73h-2.37ZM604.78,434v-14h2.37v14h-2.37Z"/>
    <path class="st15" d="M609.88,427c0-2.59.72-4.51,2.16-5.76,1.21-1.04,2.67-1.56,4.4-1.56,1.92,0,3.5.63,4.72,1.89,1.22,1.26,1.83,3,1.83,5.23,0,1.8-.27,3.22-.81,4.25-.54,1.03-1.33,1.84-2.36,2.41s-2.16.86-3.38.86c-1.96,0-3.54-.63-4.75-1.88-1.21-1.26-1.81-3.07-1.81-5.43ZM612.32,427c0,1.79.39,3.13,1.17,4.03.78.89,1.77,1.34,2.95,1.34s2.16-.45,2.94-1.35,1.17-2.26,1.17-4.1c0-1.73-.39-3.04-1.18-3.94-.79-.89-1.77-1.34-2.93-1.34s-2.17.44-2.95,1.33c-.78.89-1.17,2.23-1.17,4.02Z"/>
    <path class="st15" d="M625.78,434v-14h2.13v1.99c1.03-1.54,2.51-2.31,4.46-2.31.84,0,1.62.15,2.33.46s1.24.7,1.59,1.19.6,1.08.74,1.75c.09.44.13,1.21.13,2.31v8.61h-2.37v-8.52c0-.97-.09-1.69-.28-2.17-.18-.48-.51-.86-.98-1.15-.47-.29-1.02-.43-1.66-.43-1.01,0-1.88.32-2.62.96-.73.64-1.1,1.86-1.1,3.65v7.65h-2.37Z"/>
    <path class="st15" d="M639.85,429.82l2.35-.37c.13.94.5,1.66,1.1,2.16.6.5,1.44.75,2.53.75s1.9-.22,2.43-.67.79-.96.79-1.56c0-.54-.23-.96-.7-1.27-.33-.21-1.13-.48-2.43-.8-1.74-.44-2.95-.82-3.62-1.14-.67-.32-1.18-.76-1.53-1.33-.35-.57-.52-1.19-.52-1.88,0-.62.14-1.2.43-1.73.29-.53.67-.97,1.17-1.32.37-.27.87-.5,1.51-.69.64-.19,1.32-.28,2.05-.28,1.1,0,2.06.16,2.89.47.83.32,1.44.75,1.84,1.29.4.54.67,1.26.82,2.17l-2.32.32c-.11-.72-.41-1.28-.92-1.69-.5-.4-1.22-.61-2.14-.61-1.09,0-1.87.18-2.33.54-.47.36-.7.78-.7,1.27,0,.31.1.58.29.83.19.26.5.47.91.63.24.09.94.29,2.1.61,1.68.45,2.85.81,3.51,1.1.66.29,1.19.7,1.56,1.25.38.54.57,1.22.57,2.03s-.23,1.54-.69,2.23-1.13,1.24-2,1.62-1.85.57-2.95.57c-1.82,0-3.21-.38-4.16-1.13-.95-.76-1.56-1.88-1.83-3.36Z"/>
    <path class="st15" d="M660.02,427.96v-1.91h27v1.91h-27Z"/>
    <path class="st15" d="M705.44,432.27c-.88.75-1.72,1.27-2.54,1.58-.81.31-1.69.46-2.62.46-1.54,0-2.72-.38-3.55-1.13-.83-.75-1.24-1.71-1.24-2.88,0-.69.16-1.31.47-1.88.31-.57.72-1.02,1.23-1.37.51-.34,1.07-.6,1.71-.78.47-.12,1.17-.24,2.11-.36,1.92-.23,3.33-.5,4.23-.82,0-.32.01-.53.01-.62,0-.97-.22-1.65-.67-2.04-.61-.54-1.51-.8-2.7-.8-1.12,0-1.94.2-2.47.59-.53.39-.92,1.08-1.18,2.08l-2.32-.32c.21-.99.56-1.8,1.04-2.41.48-.61,1.18-1.08,2.1-1.41.91-.33,1.97-.49,3.18-.49s2.17.14,2.91.42,1.3.63,1.65,1.06c.35.43.6.96.74,1.62.08.4.12,1.13.12,2.19v3.16c0,2.21.05,3.6.15,4.19s.3,1.14.6,1.68h-2.48c-.25-.49-.4-1.07-.47-1.73ZM705.24,426.97c-.86.35-2.15.65-3.88.9-.98.14-1.67.3-2.07.47s-.72.43-.94.77-.33.71-.33,1.13c0,.63.24,1.16.72,1.58.48.42,1.18.63,2.1.63s1.73-.2,2.44-.6,1.23-.95,1.57-1.64c.26-.54.38-1.33.38-2.37v-.87Z"/>
    <path class="st15" d="M711.27,434v-19.33h2.37v19.33h-2.37Z"/>
    <path class="st15" d="M717.26,434v-19.33h2.37v19.33h-2.37Z"/>
    <path class="st15" d="M739.95,428.87l2.33.3c-.25,1.61-.91,2.87-1.96,3.78s-2.34,1.37-3.87,1.37c-1.92,0-3.46-.63-4.62-1.88s-1.75-3.05-1.75-5.38c0-1.51.25-2.84.75-3.97.5-1.13,1.26-1.98,2.29-2.55,1.02-.57,2.14-.85,3.34-.85,1.52,0,2.76.38,3.73,1.15s1.59,1.86,1.86,3.28l-2.31.36c-.22-.94-.61-1.65-1.17-2.12s-1.23-.71-2.02-.71c-1.2,0-2.17.43-2.91,1.29-.75.86-1.12,2.21-1.12,4.07s.36,3.25,1.08,4.1c.72.85,1.66,1.28,2.82,1.28.93,0,1.71-.29,2.33-.86.62-.57,1.02-1.45,1.19-2.64Z"/>
    <path class="st15" d="M744.29,434v-14h2.14v2.12c.54-.99,1.05-1.65,1.51-1.96s.97-.47,1.52-.47c.8,0,1.61.26,2.44.77l-.82,2.2c-.58-.34-1.16-.51-1.74-.51-.52,0-.98.16-1.4.47-.41.31-.71.75-.88,1.3-.26.84-.4,1.77-.4,2.77v7.33h-2.37Z"/>
    <path class="st15" d="M762.44,432.27c-.88.75-1.72,1.27-2.54,1.58-.81.31-1.69.46-2.62.46-1.54,0-2.72-.38-3.55-1.13-.83-.75-1.24-1.71-1.24-2.88,0-.69.16-1.31.47-1.88.31-.57.72-1.02,1.23-1.37.51-.34,1.07-.6,1.71-.78.47-.12,1.17-.24,2.11-.36,1.92-.23,3.33-.5,4.23-.82,0-.32.01-.53.01-.62,0-.97-.22-1.65-.67-2.04-.61-.54-1.51-.8-2.7-.8-1.12,0-1.94.2-2.47.59-.53.39-.92,1.08-1.18,2.08l-2.32-.32c.21-.99.56-1.8,1.04-2.41.48-.61,1.18-1.08,2.1-1.41.91-.33,1.97-.49,3.18-.49s2.17.14,2.91.42,1.3.63,1.65,1.06c.35.43.6.96.74,1.62.08.4.12,1.13.12,2.19v3.16c0,2.21.05,3.6.15,4.19s.3,1.14.6,1.68h-2.48c-.25-.49-.4-1.07-.47-1.73ZM762.25,426.97c-.86.35-2.15.65-3.88.9-.98.14-1.67.3-2.07.47s-.72.43-.94.77-.33.71-.33,1.13c0,.63.24,1.16.72,1.58.48.42,1.18.63,2.1.63s1.73-.2,2.44-.6,1.23-.95,1.57-1.64c.26-.54.38-1.33.38-2.37v-.87Z"/>
    <path class="st15" d="M768.89,434v-12.16h-2.1v-1.85h2.1v-1.49c0-.94.08-1.64.25-2.1.23-.62.63-1.11,1.21-1.5.58-.38,1.38-.57,2.42-.57.67,0,1.41.08,2.21.24l-.36,2.07c-.49-.09-.96-.13-1.4-.13-.72,0-1.23.15-1.53.46-.3.31-.45.88-.45,1.73v1.29h2.73v1.85h-2.73v12.16h-2.36Z"/>
    <path class="st15" d="M781.01,431.88l.34,2.1c-.67.14-1.27.21-1.79.21-.86,0-1.53-.14-2-.41s-.81-.63-1-1.07-.29-1.38-.29-2.8v-8.06h-1.74v-1.85h1.74v-3.47l2.36-1.42v4.89h2.39v1.85h-2.39v8.19c0,.68.04,1.11.13,1.3.08.19.22.35.41.46.19.11.46.17.81.17.26,0,.61-.03,1.04-.09Z"/>
    <path class="st15" d="M792.91,429.49l2.45.3c-.39,1.43-1.1,2.54-2.15,3.33-1.05.79-2.38,1.19-4.01,1.19-2.05,0-3.67-.63-4.87-1.89-1.2-1.26-1.8-3.03-1.8-5.31s.61-4.18,1.82-5.48,2.79-1.95,4.72-1.95,3.4.64,4.59,1.91c1.19,1.28,1.78,3.07,1.78,5.38,0,.14,0,.35-.01.63h-10.44c.09,1.54.52,2.72,1.3,3.53.78.82,1.76,1.23,2.93,1.23.87,0,1.61-.23,2.23-.69s1.1-1.19,1.46-2.19ZM785.12,425.65h7.82c-.11-1.18-.4-2.06-.9-2.65-.76-.91-1.74-1.37-2.94-1.37-1.09,0-2.01.37-2.75,1.1-.74.73-1.15,1.71-1.23,2.93Z"/>
    <path class="st15" d="M807.43,434v-1.77c-.89,1.39-2.19,2.08-3.92,2.08-1.12,0-2.14-.31-3.08-.92-.94-.62-1.66-1.47-2.17-2.58-.52-1.1-.77-2.37-.77-3.8s.23-2.66.7-3.8,1.17-2.01,2.1-2.62c.93-.61,1.97-.91,3.12-.91.84,0,1.59.18,2.25.54.66.36,1.2.82,1.61,1.39v-6.94h2.36v19.33h-2.2ZM799.93,427.01c0,1.79.38,3.13,1.13,4.02.76.89,1.65,1.33,2.68,1.33s1.92-.42,2.64-1.27c.72-.85,1.09-2.14,1.09-3.88,0-1.92-.37-3.32-1.11-4.22s-1.65-1.35-2.73-1.35-1.94.43-2.64,1.29c-.71.86-1.06,2.22-1.06,4.07Z"/>
    <path class="st15" d="M821.43,434v-12.16h-2.1v-1.85h2.1v-1.49c0-.94.08-1.64.25-2.1.23-.62.63-1.11,1.21-1.5.57-.38,1.38-.57,2.42-.57.67,0,1.41.08,2.21.24l-.36,2.07c-.49-.09-.96-.13-1.4-.13-.72,0-1.23.15-1.53.46-.3.31-.45.88-.45,1.73v1.29h2.73v1.85h-2.73v12.16h-2.36Z"/>
    <path class="st15" d="M827.48,427c0-2.59.72-4.51,2.16-5.76,1.2-1.04,2.67-1.56,4.4-1.56,1.92,0,3.5.63,4.72,1.89s1.83,3,1.83,5.23c0,1.8-.27,3.22-.81,4.25-.54,1.03-1.33,1.84-2.36,2.41-1.03.57-2.16.86-3.38.86-1.96,0-3.54-.63-4.75-1.88-1.21-1.26-1.81-3.07-1.81-5.43ZM829.92,427c0,1.79.39,3.13,1.17,4.03.78.89,1.77,1.34,2.95,1.34s2.16-.45,2.94-1.35c.78-.9,1.17-2.26,1.17-4.1,0-1.73-.39-3.04-1.18-3.94-.79-.89-1.76-1.34-2.93-1.34s-2.17.44-2.95,1.33c-.78.89-1.17,2.23-1.17,4.02Z"/>
    <path class="st15" d="M843.35,434v-14h2.14v2.12c.54-.99,1.05-1.65,1.51-1.96.46-.32.97-.47,1.52-.47.8,0,1.61.26,2.44.77l-.82,2.2c-.58-.34-1.16-.51-1.74-.51-.52,0-.98.16-1.4.47-.41.31-.71.75-.88,1.3-.26.84-.4,1.77-.4,2.77v7.33h-2.37Z"/>
    <path class="st15" d="M859.44,435.16l2.31.34c.1.71.37,1.23.8,1.56.59.44,1.39.66,2.41.66,1.1,0,1.95-.22,2.54-.66s1-1.05,1.21-1.85c.12-.48.18-1.5.17-3.04-1.04,1.22-2.33,1.83-3.88,1.83-1.92,0-3.41-.7-4.47-2.08s-1.58-3.05-1.58-5c0-1.34.24-2.57.72-3.7.48-1.13,1.18-2,2.1-2.62.92-.62,2-.92,3.24-.92,1.65,0,3.01.67,4.09,2v-1.69h2.19v12.1c0,2.18-.22,3.72-.67,4.63-.44.91-1.15,1.63-2.11,2.16-.96.53-2.15.79-3.55.79-1.67,0-3.02-.38-4.05-1.13-1.03-.75-1.53-1.88-1.49-3.39ZM861.4,426.75c0,1.84.36,3.18,1.09,4.02s1.64,1.27,2.74,1.27,2-.42,2.74-1.26c.74-.84,1.11-2.15,1.11-3.95s-.38-3.01-1.14-3.88c-.76-.87-1.68-1.3-2.75-1.3s-1.95.43-2.69,1.29-1.11,2.13-1.11,3.82Z"/>
    <path class="st15" d="M874.86,434v-14h2.14v2.12c.54-.99,1.05-1.65,1.51-1.96s.97-.47,1.52-.47c.8,0,1.61.26,2.44.77l-.82,2.2c-.58-.34-1.16-.51-1.74-.51-.52,0-.98.16-1.4.47-.41.31-.71.75-.88,1.3-.26.84-.4,1.77-.4,2.77v7.33h-2.37Z"/>
    <path class="st15" d="M882.99,427c0-2.59.72-4.51,2.16-5.76,1.21-1.04,2.67-1.56,4.4-1.56,1.92,0,3.5.63,4.72,1.89,1.22,1.26,1.83,3,1.83,5.23,0,1.8-.27,3.22-.81,4.25-.54,1.03-1.33,1.84-2.36,2.41s-2.16.86-3.38.86c-1.96,0-3.54-.63-4.75-1.88-1.21-1.26-1.81-3.07-1.81-5.43ZM885.43,427c0,1.79.39,3.13,1.17,4.03.78.89,1.77,1.34,2.95,1.34s2.16-.45,2.94-1.35,1.17-2.26,1.17-4.1c0-1.73-.39-3.04-1.18-3.94-.79-.89-1.77-1.34-2.93-1.34s-2.17.44-2.95,1.33c-.78.89-1.17,2.23-1.17,4.02Z"/>
    <path class="st15" d="M901.48,434l-4.29-14h2.45l2.23,8.08.83,3.01c.04-.15.28-1.11.73-2.89l2.23-8.2h2.44l2.1,8.12.7,2.68.8-2.7,2.4-8.1h2.31l-4.38,14h-2.47l-2.23-8.38-.54-2.39-2.83,10.77h-2.48Z"/>
    <path class="st15" d="M923.57,431.88l.34,2.1c-.67.14-1.27.21-1.79.21-.86,0-1.53-.14-2-.41s-.81-.63-1-1.07-.29-1.38-.29-2.8v-8.06h-1.74v-1.85h1.74v-3.47l2.36-1.42v4.89h2.39v1.85h-2.39v8.19c0,.68.04,1.11.12,1.3s.22.35.41.46c.19.11.46.17.81.17.26,0,.61-.03,1.04-.09Z"/>
    <path class="st15" d="M925.9,434v-19.33h2.37v6.94c1.11-1.28,2.5-1.93,4.19-1.93,1.04,0,1.94.21,2.7.61s1.31.97,1.64,1.7c.33.72.49,1.77.49,3.14v8.87h-2.37v-8.87c0-1.19-.26-2.05-.77-2.59-.51-.54-1.24-.81-2.18-.81-.7,0-1.36.18-1.98.55-.62.36-1.06.86-1.33,1.48-.26.62-.39,1.49-.39,2.58v7.66h-2.37Z"/>
    <path class="st15" d="M941.58,434v-2.7h2.7v2.7h-2.7Z"/>
  </g>
  <path class="st11" d="M418,472h208c12.15,0,22,9.85,22,22h0c0,12.15-9.85,22-22,22h-208c-12.15,0-22-9.85-22-22h0c0-12.15,9.85-22,22-22Z"/>
  <text class="st9" transform="translate(441.98 500)"><tspan x="0" y="0">pixelplugins.com</tspan></text>
</svg>