<?xml version="1.0" encoding="UTF-8"?> <svg xmlns="http://www.w3.org/2000/svg" width="97" height="23" viewBox="0 0 97 23" fill="none"><path d="M30.4436 17.25V4.5031H35.1117C36.0163 4.5031 36.7652 4.65247 37.3586 4.95123C37.9519 5.24584 38.3959 5.64625 38.6905 6.15248C38.9851 6.65455 39.1324 7.22094 39.1324 7.85165C39.1324 8.38277 39.0349 8.8309 38.8399 9.19605C38.6449 9.55704 38.3835 9.8475 38.0557 10.0674C37.732 10.2832 37.3752 10.4409 36.9851 10.5404V10.6649C37.4084 10.6857 37.8212 10.8226 38.2237 11.0757C38.6304 11.3247 38.9665 11.6795 39.232 12.14C39.4976 12.6006 39.6304 13.1608 39.6304 13.8205C39.6304 14.472 39.4768 15.0571 39.1698 15.5757C38.8669 16.0902 38.398 16.499 37.7631 16.8019C37.1283 17.1006 36.3171 17.25 35.3295 17.25H30.4436ZM32.3669 15.6006H35.1428C36.064 15.6006 36.7237 15.4222 37.1221 15.0653C37.5204 14.7085 37.7196 14.2624 37.7196 13.7272C37.7196 13.3247 37.6179 12.9554 37.4146 12.6193C37.2113 12.2832 36.9208 12.0156 36.5432 11.8164C36.1698 11.6172 35.7258 11.5176 35.2113 11.5176H32.3669V15.6006ZM32.3669 10.0176H34.9436C35.3752 10.0176 35.7631 9.93464 36.1075 9.76866C36.4561 9.60269 36.732 9.37032 36.9353 9.07157C37.1428 8.76866 37.2465 8.41181 37.2465 8.00103C37.2465 7.47405 37.0619 7.03214 36.6926 6.6753C36.3233 6.31845 35.7569 6.14003 34.9934 6.14003H32.3669V10.0176ZM47.4676 13.2853V7.68982H49.3348V17.25H47.5049V15.5944H47.4054C47.1854 16.1048 46.8327 16.5301 46.3473 16.8703C45.8659 17.2064 45.2663 17.3745 44.5485 17.3745C43.9344 17.3745 43.3908 17.2396 42.9178 16.9699C42.4489 16.6961 42.0796 16.2915 41.8099 15.7562C41.5443 15.221 41.4116 14.5591 41.4116 13.7707V7.68982H43.2726V13.5467C43.2726 14.1981 43.4531 14.7168 43.8141 15.1027C44.1751 15.4886 44.6439 15.6815 45.2207 15.6815C45.5692 15.6815 45.9157 15.5944 46.2601 15.4201C46.6087 15.2458 46.8971 14.9824 47.1253 14.6297C47.3576 14.277 47.4717 13.8288 47.4676 13.2853ZM51.4848 17.25V7.68982H53.3458V17.25H51.4848ZM52.4246 6.21472C52.101 6.21472 51.823 6.10683 51.5906 5.89106C51.3624 5.67115 51.2483 5.40974 51.2483 5.10683C51.2483 4.79978 51.3624 4.53837 51.5906 4.3226C51.823 4.10268 52.101 3.99272 52.4246 3.99272C52.7483 3.99272 53.0242 4.10268 53.2524 4.3226C53.4848 4.53837 53.601 4.79978 53.601 5.10683C53.601 5.40974 53.4848 5.67115 53.2524 5.89106C53.0242 6.10683 52.7483 6.21472 52.4246 6.21472ZM57.3599 4.5031V17.25H55.4989V4.5031H57.3599ZM63.0918 17.4367C62.32 17.4367 61.6312 17.2396 61.0254 16.8454C60.4238 16.4471 59.9507 15.8807 59.6063 15.1463C59.2661 14.4077 59.096 13.5218 59.096 12.4886C59.096 11.4554 59.2682 10.5716 59.6126 9.83713C59.9611 9.10269 60.4383 8.54045 61.0441 8.1504C61.6499 7.76036 62.3366 7.56534 63.1043 7.56534C63.6976 7.56534 64.1748 7.66493 64.5358 7.8641C64.901 8.05912 65.1831 8.28733 65.3823 8.54874C65.5856 8.81016 65.7433 9.04045 65.8553 9.23962H65.9673V4.5031H67.8283V17.25H66.0109V15.7624H65.8553C65.7433 15.9658 65.5815 16.1981 65.3698 16.4595C65.1624 16.721 64.8761 16.9492 64.5109 17.1442C64.1458 17.3392 63.6727 17.4367 63.0918 17.4367ZM63.5026 15.8496C64.0379 15.8496 64.4902 15.7085 64.8595 15.4263C65.2329 15.14 65.5151 14.7438 65.7059 14.2375C65.901 13.7313 65.9985 13.1421 65.9985 12.4699C65.9985 11.806 65.903 11.2251 65.7122 10.7272C65.5213 10.2292 65.2412 9.84128 64.8719 9.56327C64.5026 9.28526 64.0462 9.14626 63.5026 9.14626C62.9424 9.14626 62.4756 9.29148 62.1022 9.58194C61.7288 9.8724 61.4466 10.2687 61.2557 10.7707C61.069 11.2728 60.9756 11.8392 60.9756 12.4699C60.9756 13.1089 61.0711 13.6836 61.2619 14.194C61.4528 14.7044 61.735 15.1089 62.1084 15.4077C62.486 15.7023 62.9507 15.8496 63.5026 15.8496ZM74.6837 7.68982V9.1836H69.2812V7.68982H74.6837ZM70.7626 17.25V6.58194C70.7626 5.98443 70.8933 5.48857 71.1547 5.09438C71.4161 4.69604 71.7626 4.39936 72.1941 4.20434C72.6256 4.00517 73.0945 3.90558 73.6007 3.90558C73.9742 3.90558 74.2937 3.9367 74.5592 3.99895C74.8248 4.05704 75.0219 4.11098 75.1505 4.16077L74.7148 5.667C74.6277 5.6421 74.5157 5.61306 74.3787 5.57986C74.2418 5.54252 74.0758 5.52384 73.8808 5.52384C73.4285 5.52384 73.1049 5.63588 72.9099 5.85994C72.719 6.08401 72.6236 6.40766 72.6236 6.8309V17.25H70.7626ZM76.2533 17.25V7.68982H78.1143V17.25H76.2533ZM77.1931 6.21472C76.8695 6.21472 76.5915 6.10683 76.3591 5.89106C76.1309 5.67115 76.0168 5.40974 76.0168 5.10683C76.0168 4.79978 76.1309 4.53837 76.3591 4.3226C76.5915 4.10268 76.8695 3.99272 77.1931 3.99272C77.5168 3.99272 77.7927 4.10268 78.0209 4.3226C78.2533 4.53837 78.3695 4.79978 78.3695 5.10683C78.3695 5.40974 78.2533 5.67115 78.0209 5.89106C77.7927 6.10683 77.5168 6.21472 77.1931 6.21472ZM80.2674 17.25V7.68982H82.0662V9.2085H82.1657C82.34 8.69397 82.6471 8.28941 83.0869 7.9948C83.5309 7.69605 84.033 7.54667 84.5931 7.54667C84.7093 7.54667 84.8462 7.55082 85.0039 7.55912C85.1658 7.56741 85.2923 7.57779 85.3836 7.59024V9.37032C85.3089 9.34958 85.1761 9.32675 84.9853 9.30186C84.7944 9.27281 84.6035 9.25829 84.4126 9.25829C83.9728 9.25829 83.5807 9.35165 83.2363 9.53837C82.896 9.72094 82.6263 9.97613 82.4272 10.3039C82.228 10.6276 82.1284 10.9969 82.1284 11.4118V17.25H80.2674ZM90.4215 17.4429C89.4796 17.4429 88.6684 17.2417 87.9879 16.8392C87.3116 16.4326 86.7888 15.862 86.4195 15.1276C86.0543 14.389 85.8717 13.5239 85.8717 12.5322C85.8717 11.5529 86.0543 10.6898 86.4195 9.94294C86.7888 9.19605 87.3033 8.61306 87.963 8.19397C88.6269 7.77488 89.4029 7.56534 90.2908 7.56534C90.8303 7.56534 91.3531 7.65455 91.8593 7.83298C92.3655 8.0114 92.8199 8.29148 93.2224 8.67323C93.6249 9.05497 93.9423 9.55082 94.1747 10.1608C94.407 10.7666 94.5232 11.5031 94.5232 12.3703V13.0301H86.9236V11.6359H92.6996C92.6996 11.1463 92.6 10.7126 92.4008 10.3351C92.2016 9.95331 91.9215 9.65248 91.5606 9.43256C91.2037 9.21265 90.7846 9.10269 90.3033 9.10269C89.7805 9.10269 89.324 9.23132 88.934 9.48858C88.5481 9.74169 88.2493 10.0736 88.0377 10.4844C87.8303 10.8911 87.7265 11.333 87.7265 11.8102V12.8994C87.7265 13.5384 87.8386 14.0819 88.0626 14.5301C88.2908 14.9782 88.6083 15.3205 89.0149 15.5571C89.4215 15.7894 89.8967 15.9056 90.4402 15.9056C90.7929 15.9056 91.1145 15.8558 91.405 15.7562C91.6954 15.6525 91.9464 15.499 92.1581 15.2956C92.3697 15.0923 92.5315 14.8413 92.6435 14.5425L94.405 14.86C94.2639 15.3786 94.0108 15.833 93.6456 16.223C93.2846 16.6089 92.8303 16.9098 92.2825 17.1255C91.739 17.3371 91.1186 17.4429 90.4215 17.4429Z" fill="white"></path><path d="M15.8606 15.7793C16.3205 14.3344 15.8029 12.9683 14.9767 11.5435C19.2902 12.9223 21.0877 15.4035 20.9679 18.1731C20.8665 20.4816 19.3185 22.3281 16.3346 22.3281C13.3507 22.3281 11.7988 20.575 11.7012 18.1731C11.6843 17.5172 11.8481 16.8691 12.1748 16.2994C12.5016 15.7296 12.9788 15.26 13.5546 14.9414C13.5968 15.4117 13.7101 15.6312 13.8721 15.9325C14.3004 16.7292 15.5629 16.7132 15.8606 15.7793Z" fill="white"></path><path d="M0 1.83837C0 0.823065 0.821788 0 1.83551 0H7.46442C8.47815 0 9.29994 0.823067 9.29994 1.83837V20.4672C9.29994 21.4825 8.47815 22.3056 7.46442 22.3056H1.83551C0.821788 22.3056 0 21.4825 0 20.4672V1.83837Z" fill="white"></path><path d="M21 4.65721C21 7.22932 18.9181 9.31442 16.35 9.31442C13.7819 9.31442 11.7001 7.22932 11.7001 4.65721C11.7001 2.0851 13.7819 0 16.35 0C18.9181 0 21 2.0851 21 4.65721Z" fill="white"></path></svg> 